<svg width="25" height="26" viewBox="0 0 25 26" fill="none" xmlns="http://www.w3.org/2000/svg">
<circle cx="12.5" cy="13.5" r="12" fill="white" stroke="black"/>
<g clip-path="url(#clip0_2_26)">
<path d="M15.4375 4.4375C15.2306 4.80801 15.0463 5.19065 14.8854 5.58333C13.305 5.33339 11.695 5.33339 10.1146 5.58333C9.95374 5.19065 9.76938 4.80801 9.5625 4.4375C8.07374 4.69188 6.62646 5.14743 5.26042 5.79167C2.81765 9.31697 1.70983 13.5968 2.13542 17.8646C3.72733 19.0613 5.51402 19.974 7.41667 20.5625C7.84991 19.9902 8.23657 19.3841 8.57292 18.75C7.95216 18.5211 7.35552 18.2315 6.79167 17.8854C6.94632 17.7825 7.0926 17.6676 7.22917 17.5417C8.8734 18.3337 10.675 18.7449 12.5 18.7449C14.325 18.7449 16.1266 18.3337 17.7708 17.5417C17.9167 17.6667 18.0625 17.7812 18.2083 17.8854C17.6414 18.2288 17.0454 18.5216 16.4271 18.7604C16.7495 19.4089 17.1258 20.0291 17.5521 20.6146C19.4524 20.0281 21.236 19.1152 22.8229 17.9167C23.2587 13.6481 22.15 9.36477 19.6979 5.84375C18.3472 5.18618 16.9142 4.7132 15.4375 4.4375V4.4375ZM9.04167 15.4271C8.5204 15.3897 8.0339 15.1518 7.68429 14.7633C7.33469 14.3749 7.14916 13.8661 7.16667 13.3437C7.14652 12.8207 7.33113 12.3105 7.68126 11.9215C8.03139 11.5324 8.51944 11.2953 9.04167 11.2604C9.5639 11.2953 10.0519 11.5324 10.4021 11.9215C10.7522 12.3105 10.9368 12.8207 10.9167 13.3437C10.9368 13.8668 10.7522 14.377 10.4021 14.766C10.0519 15.1551 9.5639 15.3922 9.04167 15.4271V15.4271ZM15.9583 15.4271C15.4371 15.3897 14.9506 15.1518 14.601 14.7633C14.2514 14.3749 14.0658 13.8661 14.0833 13.3437C14.0632 12.8207 14.2478 12.3105 14.5979 11.9215C14.9481 11.5324 15.4361 11.2953 15.9583 11.2604C16.4815 11.2927 16.9712 11.5291 17.3218 11.9187C17.6725 12.3083 17.8562 12.8201 17.8333 13.3437C17.8562 13.8674 17.6725 14.3792 17.3218 14.7688C16.9712 15.1584 16.4815 15.3948 15.9583 15.4271V15.4271Z" fill="black"/>
</g>
<defs>
<clipPath id="clip0_2_26">
<rect width="25" height="20.8333" fill="white"/>
</clipPath>
</defs>
</svg>
