<svg width="25" height="25" viewBox="0 0 25 25" fill="none" xmlns="http://www.w3.org/2000/svg">
<circle cx="12.5" cy="12.5" r="12" fill="white" stroke="black"/>
<path d="M12.501 2.08541C6.74896 2.08541 2.08542 6.74896 2.08542 12.501C2.08542 17.699 5.89375 22.0073 10.874 22.7917V15.5125H8.22813V12.501H10.874V10.2062C10.874 7.59375 12.4292 6.15312 14.8073 6.15312C15.9469 6.15312 17.1406 6.35625 17.1406 6.35625V8.91771H15.824C14.5323 8.91771 14.1281 9.72187 14.1281 10.5458V12.499H17.0146L16.5531 15.5104H14.1281V22.7896C19.1083 22.0094 22.9167 17.7 22.9167 12.501C22.9167 6.74896 18.2531 2.08541 12.501 2.08541V2.08541Z" fill="black"/>
</svg>
