<svg width="25" height="25" viewBox="0 0 25 25" fill="none" xmlns="http://www.w3.org/2000/svg">
<circle cx="12.5" cy="12.5" r="12" fill="white" stroke="black"/>
<path d="M21.8198 8.65104C21.8093 7.86211 21.6616 7.08102 21.3833 6.34271C21.142 5.71995 20.7735 5.15437 20.3012 4.68212C19.829 4.20986 19.2634 3.8413 18.6406 3.6C17.9118 3.32641 17.1419 3.17848 16.3635 3.1625C15.3615 3.11771 15.0437 3.10521 12.5 3.10521C9.95625 3.10521 9.63021 3.10521 8.63542 3.1625C7.85746 3.1786 7.08786 3.32653 6.35937 3.6C5.73652 3.84114 5.17086 4.20963 4.69858 4.68191C4.2263 5.15419 3.8578 5.71985 3.61667 6.34271C3.34253 7.07097 3.19492 7.84074 3.18021 8.61875C3.13542 9.62188 3.12187 9.93958 3.12187 12.4833C3.12187 15.0271 3.12187 15.3521 3.18021 16.3479C3.19583 17.1271 3.34271 17.8958 3.61667 18.626C3.85821 19.2487 4.22697 19.8141 4.69941 20.2862C5.17185 20.7583 5.73757 21.1266 6.36042 21.3677C7.08691 21.6523 7.85664 21.8108 8.63646 21.8365C9.63958 21.8812 9.95729 21.8948 12.501 21.8948C15.0448 21.8948 15.3708 21.8948 16.3656 21.8365C17.1439 21.8211 17.9139 21.6735 18.6427 21.4C19.2653 21.1584 19.8307 20.7898 20.303 20.3175C20.7752 19.8453 21.1438 19.2799 21.3854 18.6573C21.6594 17.9281 21.8062 17.1594 21.8219 16.3792C21.8667 15.3771 21.8802 15.0594 21.8802 12.5146C21.8781 9.97083 21.8781 9.64792 21.8198 8.65104V8.65104ZM12.4938 17.2937C9.83333 17.2937 7.67812 15.1385 7.67812 12.4781C7.67812 9.81771 9.83333 7.6625 12.4938 7.6625C13.7709 7.6625 14.9958 8.16986 15.8989 9.07297C16.802 9.97607 17.3094 11.2009 17.3094 12.4781C17.3094 13.7553 16.802 14.9802 15.8989 15.8833C14.9958 16.7864 13.7709 17.2937 12.4938 17.2937V17.2937ZM17.501 8.60729C17.3535 8.60743 17.2075 8.57848 17.0712 8.5221C16.9349 8.46571 16.811 8.383 16.7067 8.2787C16.6024 8.1744 16.5197 8.05056 16.4633 7.91426C16.4069 7.77796 16.378 7.63188 16.3781 7.48438C16.3781 7.33698 16.4072 7.19103 16.4636 7.05485C16.52 6.91868 16.6026 6.79495 16.7069 6.69072C16.8111 6.5865 16.9348 6.50382 17.071 6.44742C17.2072 6.39101 17.3531 6.36198 17.5005 6.36198C17.6479 6.36198 17.7939 6.39101 17.93 6.44742C18.0662 6.50382 18.19 6.5865 18.2942 6.69072C18.3984 6.79495 18.4811 6.91868 18.5375 7.05485C18.5939 7.19103 18.6229 7.33698 18.6229 7.48438C18.6229 8.10521 18.1208 8.60729 17.501 8.60729Z" fill="black"/>
<path d="M12.4938 15.6062C14.2214 15.6062 15.6219 14.2057 15.6219 12.4781C15.6219 10.7505 14.2214 9.35 12.4938 9.35C10.7661 9.35 9.36563 10.7505 9.36563 12.4781C9.36563 14.2057 10.7661 15.6062 12.4938 15.6062Z" fill="black"/>
</svg>
