<svg width="25" height="25" viewBox="0 0 25 25" fill="none" xmlns="http://www.w3.org/2000/svg">
<path d="M24.5 12.5C24.5 19.1274 19.1274 24.5 12.5 24.5C5.87258 24.5 0.5 19.1274 0.5 12.5C0.5 5.87258 5.87258 0.5 12.5 0.5C19.1274 0.5 24.5 5.87258 24.5 12.5Z" fill="white" stroke="black"/>
<path d="M20.59 7.69C19.5932 7.47079 18.6914 6.94144 18.0141 6.17789C17.3368 5.41435 16.9187 4.45587 16.82 3.44V3H13.37V16.67C13.3707 17.2766 13.1805 17.868 12.8264 18.3604C12.4723 18.8529 11.9723 19.2215 11.3971 19.414C10.8218 19.6065 10.2007 19.6131 9.62148 19.4329C9.0423 19.2527 8.5345 18.8948 8.17 18.41C7.84345 17.9808 7.64349 17.4689 7.59273 16.932C7.54197 16.3951 7.64244 15.8548 7.88278 15.372C8.12312 14.8892 8.49373 14.4834 8.95271 14.2003C9.41169 13.9172 9.94073 13.7681 10.48 13.77C10.7782 13.7683 11.075 13.8121 11.36 13.9V10.4C11.0283 10.3589 10.6941 10.3422 10.36 10.35C9.12931 10.3829 7.93492 10.7739 6.92308 11.4753C5.91125 12.1766 5.12589 13.1578 4.66318 14.2986C4.20046 15.4395 4.08048 16.6905 4.31792 17.8986C4.55536 19.1066 5.13991 20.2191 6 21.1C6.88149 21.9962 8.00949 22.6101 9.24069 22.8638C10.4719 23.1175 11.7507 22.9994 12.9147 22.5246C14.0786 22.0498 15.0751 21.2397 15.7776 20.1973C16.4801 19.1548 16.8569 17.9271 16.86 16.67V9.67C18.2515 10.6639 19.92 11.1956 21.63 11.19V7.79C21.2941 7.79139 20.959 7.75787 20.63 7.69H20.59Z" fill="black"/>
</svg>
