<svg width="25" height="25" viewBox="0 0 25 25" fill="none" xmlns="http://www.w3.org/2000/svg">
<circle cx="12.5" cy="12.5" r="12" fill="white" stroke="black"/>
<path d="M22.4927 7.50312C22.3741 7.06292 22.1422 6.66146 21.8202 6.33872C21.4982 6.01597 21.0972 5.78319 20.6573 5.66354C19.026 5.21562 12.5 5.20833 12.5 5.20833C12.5 5.20833 5.975 5.20104 4.34271 5.62917C3.90305 5.75432 3.50294 5.99039 3.1808 6.31472C2.85866 6.63905 2.6253 7.04075 2.50313 7.48125C2.07292 9.1125 2.06875 12.4958 2.06875 12.4958C2.06875 12.4958 2.06458 15.8958 2.49167 17.5104C2.73125 18.4031 3.43438 19.1083 4.32813 19.349C5.97604 19.7969 12.4844 19.8042 12.4844 19.8042C12.4844 19.8042 19.0104 19.8115 20.6417 19.3844C21.0818 19.2649 21.4831 19.0327 21.8059 18.7106C22.1287 18.3885 22.3619 17.9877 22.4823 17.5479C22.9135 15.9177 22.9167 12.5354 22.9167 12.5354C22.9167 12.5354 22.9375 9.13437 22.4927 7.50312V7.50312ZM10.4125 15.6302L10.4177 9.38021L15.8417 12.5104L10.4125 15.6302V15.6302Z" fill="black"/>
</svg>
